# xmcd
#
# Track frame offsets:
#	150
#	15339
#	32685
#	50116
#	67897
#	86182
#	105199
#	121845
#	140167
#	155935
#	172942
#	190199
#	211255
#	229336
#	244810
#	263212
#	281259
#	295163
#	312991
#	327757
#
# Disc length: 4623 seconds
#
# Revision: 5
# Processed by: cddbd v1.5.2PL0 Copyright (c) Steve Scherf et al.
# Submitted via: audiograbber 1.83.01
#
DISCID=1c120d14
DTITLE=Various Artist - Promo Urban September 2005
DYEAR=2005
DGENRE=Hip Hop
TTITLE0=Bow Wow Feat. Ciara - Like You (Album Version) 
TTITLE1=Ciara - And I
TTITLE2=Lil Kim - Shut Up 
TTITLE3=Three 6 Mafia Feat. Young Buck, Eightball and MJG - Stay Fly 
TTITLE4=Tony Yayo Feat. Eminem and Obie Trice - Drama Setter
TTITLE5=Young Jeezy Feat. Akon - Soul Survivor 
TTITLE6=Teairra Mari - No Daddy 
TTITLE7=Sharissa Feat. R. Kelly - In Love With A Thug
TTITLE8=Ebony Eyez Feat. Trina - In Ya Face (Remix Radio Clean Version) 
TTITLE9=Remy Ma - Whuteva
TTITLE10=Chris Brown Feat. Juelz Santana - Run It! (Remix)
TTITLE11=Dem Franchize Boyz Feat. Jermaine Dupri, Da Brat and Bow Wow - I Think T
TTITLE11=hey Like Me (Remix)
TTITLE12=Brooke Valentine Feat. Paul Wall and Mike Jones - Long As You Come Home 
TTITLE12=[Remix Clean]
TTITLE13=Yummy Bingham Feat. Jadakiss - Come Get It 
TTITLE14=Chamillionaire Feat. Lil Flip - Turn It Up 
TTITLE15=Rasheeda - Georgia Peach 
TTITLE16=Jazze Pha Feat. Cee Lo Greene - Happy Hour 
TTITLE17=Omarion - I'm Tryna 
TTITLE18=Don Omar - Reggaeton Latino
TTITLE19=Syleena Johnson - Another Relationship
EXTD=
EXTT0=
EXTT1=
EXTT2=
EXTT3=
EXTT4=
EXTT5=
EXTT6=
EXTT7=
EXTT8=
EXTT9=
EXTT10=
EXTT11=
EXTT12=
EXTT13=
EXTT14=
EXTT15=
EXTT16=
EXTT17=
EXTT18=
EXTT19=
PLAYORDER=
